<svg display="none" xmlns="http://www.w3.org/2000/svg">

	<!-- logo-->
	<symbol id="svgLogo" viewBox="0 0 110 34">
		<g clip-path="url(#clip0_406480_4150)">
			<path d="M34.0304 17.7595C33.4917 18.0687 32.8383 18.3131 32.0702 18.4927C31.3021 18.6723 30.504 18.7621 29.676 18.7621C28.5588 18.7621 27.6061 18.6274 26.818 18.358C26.0399 18.0887 25.4514 17.7146 25.0523 17.2358C24.6633 16.7569 24.4688 16.2033 24.4688 15.5748C24.4688 15.0262 24.6184 14.5424 24.9177 14.1234C25.2169 13.7044 25.6309 13.3802 26.1596 13.1508C25.7506 12.9413 25.4364 12.652 25.2169 12.2829C25.0074 11.9038 24.9027 11.4898 24.9027 11.0409C24.9027 10.4623 25.0823 9.93361 25.4414 9.45478C25.8105 8.97595 26.3691 8.59189 27.1173 8.30259C27.8655 8.0133 28.7882 7.86865 29.8855 7.86865C30.5738 7.86865 31.2522 7.93349 31.9206 8.06318C32.5889 8.19286 33.1775 8.36743 33.6862 8.5869L32.8782 10.8015C31.9505 10.3925 30.9928 10.188 30.0052 10.188C29.297 10.188 28.7683 10.2828 28.4191 10.4723C28.07 10.6519 27.8954 10.9062 27.8954 11.2354C27.8954 11.834 28.3293 12.1332 29.1972 12.1332H32.16V14.3927H29.0027C28.4939 14.3927 28.1099 14.4775 27.8505 14.6471C27.5911 14.8067 27.4614 15.0461 27.4614 15.3653C27.4614 15.7045 27.651 15.9689 28.0301 16.1584C28.4091 16.3479 28.9977 16.4427 29.7957 16.4427C30.3644 16.4427 30.9479 16.3679 31.5465 16.2183C32.155 16.0587 32.6837 15.8442 33.1326 15.5748L34.0304 17.7595Z" fill="black"/>
			<path d="M41.6567 14.3029C42.5845 14.6122 43.0483 15.2506 43.0483 16.2183C43.0483 16.9465 42.764 17.5201 42.1954 17.9391C41.6268 18.3481 40.7889 18.5526 39.6816 18.5526H35.1177V10.4424H39.4721C40.5295 10.4424 41.3475 10.6269 41.9261 10.996C42.5146 11.3651 42.8089 11.8838 42.8089 12.5522C42.8089 12.9413 42.7092 13.2854 42.5097 13.5847C42.3101 13.884 42.0258 14.1234 41.6567 14.3029ZM37.6615 13.7044H39.2177C39.8761 13.7044 40.2053 13.46 40.2053 12.9712C40.2053 12.5023 39.8761 12.2679 39.2177 12.2679H37.6615V13.7044ZM39.4272 16.7121C40.1155 16.7121 40.4597 16.4627 40.4597 15.9639C40.4597 15.4651 40.1255 15.2157 39.4571 15.2157H37.6615V16.7121H39.4272Z" fill="black"/>
			<path d="M48.2852 15.6646H47.3275V18.5526H44.4845V10.4424H47.3275V13.4351H48.3451L50.3352 10.4424H53.3428L50.6195 14.3329L53.5224 18.5526H50.1706L48.2852 15.6646Z" fill="black"/>
			<path d="M62.7248 10.4424V18.5526H59.8818V12.7018H57.8318L57.7719 13.9438C57.732 15.0012 57.6273 15.8741 57.4577 16.5624C57.2881 17.2507 57.0088 17.7894 56.6197 18.1785C56.2307 18.5575 55.697 18.7471 55.0186 18.7471C54.6695 18.7471 54.2106 18.6822 53.642 18.5526L53.7617 16.2332C53.9413 16.2532 54.061 16.2632 54.1208 16.2632C54.4301 16.2632 54.6645 16.1634 54.8241 15.9639C54.9837 15.7644 55.0935 15.5 55.1533 15.1708C55.2132 14.8316 55.2531 14.3827 55.273 13.8241L55.3927 10.4424H62.7248Z" fill="black"/>
			<path d="M72.9851 10.4424V18.5526H70.2767V17.6996C69.9774 18.0189 69.6183 18.2633 69.1993 18.4329C68.7903 18.6024 68.3514 18.6872 67.8825 18.6872C66.8251 18.6872 65.9822 18.378 65.3537 17.7595C64.7352 17.141 64.426 16.2133 64.426 14.9763V10.4424H67.269V14.5124C67.269 15.6796 67.7229 16.2632 68.6307 16.2632C69.0796 16.2632 69.4437 16.1085 69.723 15.7993C70.0024 15.4801 70.142 14.9962 70.142 14.3478V10.4424H72.9851Z" fill="black"/>
			<path d="M83.5275 10.4424V17.0712C83.5275 18.5775 83.1185 19.7047 82.3005 20.4529C81.4825 21.2111 80.3054 21.5901 78.7692 21.5901C77.9711 21.5901 77.2229 21.5004 76.5246 21.3208C75.8263 21.1412 75.2328 20.8769 74.744 20.5277L75.7765 18.5376C76.1057 18.8069 76.5196 19.0164 77.0184 19.1661C77.5272 19.3257 78.026 19.4055 78.5148 19.4055C79.2629 19.4055 79.8116 19.2409 80.1608 18.9117C80.5099 18.5825 80.6845 18.0937 80.6845 17.4453V17.1759C80.1358 17.8144 79.3328 18.1336 78.2754 18.1336C77.5571 18.1336 76.8937 17.974 76.2852 17.6548C75.6767 17.3256 75.1929 16.8667 74.8338 16.2781C74.4746 15.6796 74.2951 14.9913 74.2951 14.2132C74.2951 13.445 74.4746 12.7667 74.8338 12.1781C75.1929 11.5796 75.6767 11.1207 76.2852 10.8015C76.8937 10.4723 77.5571 10.3077 78.2754 10.3077C79.4325 10.3077 80.2805 10.6818 80.8191 11.43V10.4424H83.5275ZM78.9487 15.8741C79.4575 15.8741 79.8765 15.7195 80.2056 15.4102C80.5448 15.101 80.7144 14.702 80.7144 14.2132C80.7144 13.7244 80.5498 13.3303 80.2206 13.031C79.8914 12.7218 79.4674 12.5672 78.9487 12.5672C78.43 12.5672 78.001 12.7218 77.6619 13.031C77.3327 13.3303 77.1681 13.7244 77.1681 14.2132C77.1681 14.702 77.3377 15.101 77.6768 15.4102C78.016 15.7195 78.44 15.8741 78.9487 15.8741Z" fill="black"/>
			<path d="M29.0815 22.5159V27.3992H27.7142V23.6111H25.8585V27.3992H24.4982V22.5159H29.0815Z" fill="black"/>
			<path d="M32.0718 23.5553C32.4857 23.5553 32.8462 23.6344 33.1531 23.7925C33.4601 23.9506 33.695 24.1785 33.8577 24.4762C34.0252 24.7692 34.1089 25.1133 34.1089 25.5086C34.1089 25.8993 34.0321 26.2435 33.8787 26.5411C33.7252 26.8341 33.5089 27.062 33.2299 27.2248C32.9508 27.3829 32.6276 27.462 32.2602 27.462C31.8277 27.462 31.4881 27.3294 31.2417 27.0643V28.7526H29.9162V25.5226C29.9162 25.1319 30.0045 24.7878 30.1813 24.4901C30.358 24.1925 30.6091 23.9623 30.9347 23.7995C31.2603 23.6367 31.6393 23.5553 32.0718 23.5553ZM32.009 26.4086C32.2462 26.4086 32.4369 26.3272 32.5811 26.1644C32.7299 25.997 32.8043 25.7784 32.8043 25.5086C32.8043 25.2389 32.7299 25.0226 32.5811 24.8599C32.4369 24.6924 32.2462 24.6087 32.009 24.6087C31.7718 24.6087 31.5812 24.6924 31.437 24.8599C31.2928 25.0226 31.2207 25.2389 31.2207 25.5086C31.2207 25.783 31.2905 26.0016 31.43 26.1644C31.5742 26.3272 31.7672 26.4086 32.009 26.4086Z" fill="black"/>
			<path d="M36.6121 27.462C36.2075 27.462 35.8424 27.3783 35.5169 27.2108C35.1913 27.0434 34.9355 26.8109 34.7495 26.5132C34.5681 26.2156 34.4774 25.8784 34.4774 25.5017C34.4774 25.1296 34.5681 24.7947 34.7495 24.4971C34.9355 24.1994 35.189 23.9692 35.5099 23.8065C35.8355 23.639 36.2029 23.5553 36.6121 23.5553C37.0214 23.5553 37.3888 23.639 37.7144 23.8065C38.0399 23.9692 38.2934 24.1994 38.4748 24.4971C38.6562 24.7901 38.7469 25.125 38.7469 25.5017C38.7469 25.8784 38.6562 26.2156 38.4748 26.5132C38.2934 26.8109 38.0399 27.0434 37.7144 27.2108C37.3888 27.3783 37.0214 27.462 36.6121 27.462ZM36.6121 26.4086C36.8447 26.4086 37.0354 26.3295 37.1842 26.1714C37.333 26.0086 37.4074 25.7854 37.4074 25.5017C37.4074 25.2226 37.333 25.004 37.1842 24.8459C37.0354 24.6878 36.8447 24.6087 36.6121 24.6087C36.3796 24.6087 36.1889 24.6878 36.0401 24.8459C35.8913 25.004 35.8168 25.2226 35.8168 25.5017C35.8168 25.7854 35.8913 26.0086 36.0401 26.1714C36.1889 26.3295 36.3796 26.4086 36.6121 26.4086Z" fill="black"/>
			<path d="M41.3707 26.4504C41.5521 26.4504 41.7079 26.4249 41.8381 26.3737C41.973 26.3225 42.1078 26.2388 42.2427 26.1226L42.9333 26.8481C42.5752 27.2574 42.0404 27.462 41.3288 27.462C40.887 27.462 40.4986 27.3783 40.1638 27.2108C39.8289 27.0434 39.5685 26.8109 39.3825 26.5132C39.2011 26.2156 39.1104 25.8784 39.1104 25.5017C39.1104 25.1296 39.2011 24.7971 39.3825 24.5041C39.5638 24.2064 39.8127 23.9739 40.1289 23.8065C40.4498 23.639 40.8079 23.5553 41.2032 23.5553C41.5707 23.5553 41.9055 23.632 42.2078 23.7855C42.5148 23.9344 42.7589 24.1553 42.9403 24.4483C43.1217 24.7366 43.2124 25.0808 43.2124 25.4807L40.5126 25.997C40.6568 26.2993 40.9428 26.4504 41.3707 26.4504ZM41.2102 24.4971C40.9823 24.4971 40.7963 24.5692 40.6521 24.7134C40.5079 24.8529 40.4266 25.0552 40.408 25.3203L41.9427 25.0203C41.8962 24.8622 41.8078 24.7366 41.6776 24.6436C41.5474 24.5459 41.3916 24.4971 41.2102 24.4971Z" fill="black"/>
			<path d="M45.6164 26.0528H45.1699V27.3992H43.8444V23.6181H45.1699V25.0133H45.6443L46.5721 23.6181H47.9744L46.7047 25.4319L48.0581 27.3992H46.4954L45.6164 26.0528Z" fill="black"/>
			<path d="M53.4227 23.5553C53.8878 23.5553 54.2575 23.6948 54.5319 23.9739C54.811 24.2529 54.9505 24.6738 54.9505 25.2366V27.3992H53.625V25.4528C53.625 25.1877 53.5739 24.9924 53.4716 24.8668C53.3739 24.7413 53.2344 24.6785 53.053 24.6785C52.853 24.6785 52.6925 24.7482 52.5716 24.8878C52.4507 25.0273 52.3902 25.2389 52.3902 25.5226V27.3992H51.0648V25.4528C51.0648 24.9366 50.8741 24.6785 50.4927 24.6785C50.2881 24.6785 50.1253 24.7482 50.0044 24.8878C49.8835 25.0273 49.823 25.2389 49.823 25.5226V27.3992H48.4975V23.6181H49.7602V24.0157C49.8997 23.8623 50.0648 23.7483 50.2555 23.6739C50.4509 23.5948 50.6625 23.5553 50.8904 23.5553C51.1555 23.5553 51.3926 23.6041 51.6019 23.7018C51.8112 23.7995 51.981 23.9483 52.1112 24.1483C52.26 23.9576 52.4484 23.8111 52.6763 23.7088C52.9042 23.6065 53.153 23.5553 53.4227 23.5553Z" fill="black"/>
			<path d="M55.7531 23.6181H57.0716V25.0203H58.4319V23.6181H59.7574V27.3992H58.4319V26.0737H57.0716V27.3992H55.7531V23.6181Z" fill="black"/>
			<path d="M62.4512 27.5108C61.2002 27.5108 60.5746 26.9737 60.5746 25.8993V23.6181H61.8931V24.818C61.9908 24.7529 62.121 24.6994 62.2838 24.6576C62.4512 24.6157 62.6419 24.5948 62.8559 24.5948C63.3209 24.5948 63.686 24.7134 63.9511 24.9506C64.2162 25.1831 64.3488 25.5296 64.3488 25.99C64.3488 26.4876 64.1767 26.8667 63.8325 27.1271C63.493 27.3829 63.0326 27.5108 62.4512 27.5108ZM64.6627 23.6181H65.9882V27.3992H64.6627V23.6181ZM62.4512 26.6039C62.6326 26.6039 62.7698 26.5504 62.8628 26.4435C62.9559 26.3365 63.0024 26.1946 63.0024 26.0179C63.0024 25.8458 62.9559 25.711 62.8628 25.6133C62.7698 25.5156 62.635 25.4668 62.4582 25.4668C62.3327 25.4668 62.221 25.49 62.1234 25.5366C62.0257 25.5831 61.949 25.6458 61.8931 25.7249V26.0179C61.8931 26.1993 61.9397 26.3435 62.0327 26.4504C62.1257 26.5528 62.2652 26.6039 62.4512 26.6039Z" fill="black"/>
			<path d="M68.8804 26.4504C69.0617 26.4504 69.2176 26.4249 69.3478 26.3737C69.4826 26.3225 69.6175 26.2388 69.7524 26.1226L70.443 26.8481C70.0849 27.2574 69.5501 27.462 68.8385 27.462C68.3967 27.462 68.0083 27.3783 67.6735 27.2108C67.3386 27.0434 67.0782 26.8109 66.8921 26.5132C66.7108 26.2156 66.6201 25.8784 66.6201 25.5017C66.6201 25.1296 66.7108 24.7971 66.8921 24.5041C67.0735 24.2064 67.3223 23.9739 67.6386 23.8065C67.9595 23.639 68.3176 23.5553 68.7129 23.5553C69.0804 23.5553 69.4152 23.632 69.7175 23.7855C70.0245 23.9344 70.2686 24.1553 70.45 24.4483C70.6314 24.7366 70.7221 25.0808 70.7221 25.4807L68.0223 25.997C68.1665 26.2993 68.4525 26.4504 68.8804 26.4504ZM68.7199 24.4971C68.492 24.4971 68.306 24.5692 68.1618 24.7134C68.0176 24.8529 67.9363 25.0552 67.9176 25.3203L69.4524 25.0203C69.4059 24.8622 69.3175 24.7366 69.1873 24.6436C69.0571 24.5459 68.9013 24.4971 68.7199 24.4971Z" fill="black"/>
			<path d="M75.2819 27.462C74.8633 27.462 74.4889 27.3783 74.1587 27.2108C73.8285 27.0434 73.5704 26.8109 73.3843 26.5132C73.2029 26.2156 73.1123 25.8784 73.1123 25.5017C73.1123 25.125 73.2029 24.7901 73.3843 24.4971C73.5704 24.1994 73.8285 23.9692 74.1587 23.8065C74.4889 23.639 74.8633 23.5553 75.2819 23.5553C75.7097 23.5553 76.0795 23.6483 76.3911 23.8344C76.7027 24.0157 76.9236 24.2692 77.0538 24.5948L76.0283 25.118C75.8562 24.7785 75.6051 24.6087 75.2749 24.6087C75.0377 24.6087 74.84 24.6878 74.6819 24.8459C74.5284 25.004 74.4517 25.2226 74.4517 25.5017C74.4517 25.7854 74.5284 26.0086 74.6819 26.1714C74.84 26.3295 75.0377 26.4086 75.2749 26.4086C75.6051 26.4086 75.8562 26.2388 76.0283 25.8993L77.0538 26.4225C76.9236 26.7481 76.7027 27.0039 76.3911 27.1899C76.0795 27.3713 75.7097 27.462 75.2819 27.462Z" fill="black"/>
			<path d="M81.5009 23.6181V27.3992H80.2382V27.0016C80.0987 27.1504 79.9313 27.2643 79.7359 27.3434C79.5453 27.4225 79.3406 27.462 79.122 27.462C78.6291 27.462 78.2361 27.3178 77.9431 27.0295C77.6547 26.7411 77.5105 26.3086 77.5105 25.7319V23.6181H78.836V25.5156C78.836 26.0598 79.0476 26.3318 79.4708 26.3318C79.6801 26.3318 79.8499 26.2598 79.9801 26.1156C80.1103 25.9668 80.1754 25.7412 80.1754 25.4389V23.6181H81.5009Z" fill="black"/>
			<path d="M84.2882 27.462C83.8697 27.462 83.4953 27.3783 83.1651 27.2108C82.8349 27.0434 82.5767 26.8109 82.3907 26.5132C82.2093 26.2156 82.1186 25.8784 82.1186 25.5017C82.1186 25.125 82.2093 24.7901 82.3907 24.4971C82.5767 24.1994 82.8349 23.9692 83.1651 23.8065C83.4953 23.639 83.8697 23.5553 84.2882 23.5553C84.7161 23.5553 85.0859 23.6483 85.3975 23.8344C85.7091 24.0157 85.93 24.2692 86.0602 24.5948L85.0347 25.118C84.8626 24.7785 84.6115 24.6087 84.2813 24.6087C84.0441 24.6087 83.8464 24.6878 83.6883 24.8459C83.5348 25.004 83.4581 25.2226 83.4581 25.5017C83.4581 25.7854 83.5348 26.0086 83.6883 26.1714C83.8464 26.3295 84.0441 26.4086 84.2813 26.4086C84.6115 26.4086 84.8626 26.2388 85.0347 25.8993L86.0602 26.4225C85.93 26.7481 85.7091 27.0039 85.3975 27.1899C85.0859 27.3713 84.7161 27.462 84.2882 27.462Z" fill="black"/>
			<path d="M91.5398 23.5553C92.0049 23.5553 92.3746 23.6948 92.649 23.9739C92.9281 24.2529 93.0676 24.6738 93.0676 25.2366V27.3992H91.7421V25.4528C91.7421 25.1877 91.6909 24.9924 91.5886 24.8668C91.491 24.7413 91.3514 24.6785 91.1701 24.6785C90.9701 24.6785 90.8096 24.7482 90.6887 24.8878C90.5678 25.0273 90.5073 25.2389 90.5073 25.5226V27.3992H89.1818V25.4528C89.1818 24.9366 88.9912 24.6785 88.6098 24.6785C88.4052 24.6785 88.2424 24.7482 88.1215 24.8878C88.0005 25.0273 87.9401 25.2389 87.9401 25.5226V27.3992H86.6146V23.6181H87.8773V24.0157C88.0168 23.8623 88.1819 23.7483 88.3726 23.6739C88.5679 23.5948 88.7795 23.5553 89.0074 23.5553C89.2725 23.5553 89.5097 23.6041 89.719 23.7018C89.9283 23.7995 90.098 23.9483 90.2283 24.1483C90.3771 23.9576 90.5654 23.8111 90.7933 23.7088C91.0212 23.6065 91.2701 23.5553 91.5398 23.5553Z" fill="black"/>
			<path d="M95.8723 26.4504C96.0537 26.4504 96.2095 26.4249 96.3397 26.3737C96.4746 26.3225 96.6094 26.2388 96.7443 26.1226L97.435 26.8481C97.0769 27.2574 96.542 27.462 95.8304 27.462C95.3886 27.462 95.0003 27.3783 94.6654 27.2108C94.3306 27.0434 94.0701 26.8109 93.8841 26.5132C93.7027 26.2156 93.612 25.8784 93.612 25.5017C93.612 25.1296 93.7027 24.7971 93.8841 24.5041C94.0655 24.2064 94.3143 23.9739 94.6305 23.8065C94.9514 23.639 95.3095 23.5553 95.7049 23.5553C96.0723 23.5553 96.4071 23.632 96.7094 23.7855C97.0164 23.9344 97.2606 24.1553 97.4419 24.4483C97.6233 24.7366 97.714 25.0808 97.714 25.4807L95.0142 25.997C95.1584 26.2993 95.4444 26.4504 95.8723 26.4504ZM95.7118 24.4971C95.4839 24.4971 95.2979 24.5692 95.1537 24.7134C95.0096 24.8529 94.9282 25.0552 94.9096 25.3203L96.4443 25.0203C96.3978 24.8622 96.3095 24.7366 96.1792 24.6436C96.049 24.5459 95.8932 24.4971 95.7118 24.4971Z" fill="black"/>
			<path d="M102.016 27.3992V25.411L101.046 27.0643H100.481L99.539 25.3831V27.3992H98.3461V23.6181H99.7413L100.795 25.5924L101.953 23.6181H103.202L103.208 27.3992H102.016Z" fill="black"/>
			<path d="M105.903 27.5108C104.652 27.5108 104.026 26.9737 104.026 25.8993V23.6181H105.345V24.818C105.442 24.7529 105.572 24.6994 105.735 24.6576C105.903 24.6157 106.093 24.5948 106.307 24.5948C106.772 24.5948 107.137 24.7134 107.403 24.9506C107.668 25.1831 107.8 25.5296 107.8 25.99C107.8 26.4876 107.628 26.8667 107.284 27.1271C106.944 27.3829 106.484 27.5108 105.903 27.5108ZM108.114 23.6181H109.44V27.3992H108.114V23.6181ZM105.903 26.6039C106.084 26.6039 106.221 26.5504 106.314 26.4435C106.407 26.3365 106.454 26.1946 106.454 26.0179C106.454 25.8458 106.407 25.711 106.314 25.6133C106.221 25.5156 106.086 25.4668 105.91 25.4668C105.784 25.4668 105.672 25.49 105.575 25.5366C105.477 25.5831 105.4 25.6458 105.345 25.7249V26.0179C105.345 26.1993 105.391 26.3435 105.484 26.4504C105.577 26.5528 105.717 26.6039 105.903 26.6039Z" fill="black"/>
			<path d="M4.08342 20.9032L8.00121 11.8796H9.31557V14.4325L6.5352 20.9032H8.60784V19.7405C8.60784 19.4574 9.07966 19.4372 9.31557 19.4625V23.0264C8.6685 23.0264 8.57414 22.8073 8.60784 22.6978V21.6868H6.15606L0.0897897 35.2348H-0.137695L1.40415 30.5587C1.40415 30.5587 0.0392375 30.0279 0.494207 28.8905C0.949177 27.753 3.679 21.6868 3.679 21.6868H0.494207V20.9032H4.08342Z" fill="#FF9900"/>
			<path d="M14.295 20.9032L10.3772 11.8796H9.06281V14.4325L11.8432 20.9032H9.77054V19.7405C9.77054 19.4574 9.29872 19.4372 9.06281 19.4625V23.0264C9.70988 23.0264 9.80424 22.8073 9.77054 22.6978V21.6868H12.2223L18.2886 35.2348H18.5161L16.9742 30.5587C16.9742 30.5587 18.3391 30.0279 17.8842 28.8905C17.4292 27.753 14.6994 21.6868 14.6994 21.6868H17.8842V20.9032H14.295Z" fill="#FF9900"/>
			<path fill-rule="evenodd" clip-rule="evenodd" d="M9.21462 10.5654C10.6943 10.5654 11.8939 9.36586 11.8939 7.88615C11.8939 6.40643 10.6943 5.20688 9.21462 5.20688C7.7349 5.20688 6.53535 6.40643 6.53535 7.88615C6.53535 9.36586 7.7349 10.5654 9.21462 10.5654ZM9.21462 12.0314C11.504 12.0314 13.3599 10.1755 13.3599 7.88615C13.3599 5.59677 11.504 3.74086 9.21462 3.74086C6.92524 3.74086 5.06934 5.59677 5.06934 7.88615C5.06934 10.1755 6.92524 12.0314 9.21462 12.0314Z" fill="black"/>
			<path d="M8.45633 0H9.9729V3.99363H8.45633V0Z" fill="black"/>
		</g>
		</symbol>
	<!-- end logo-->
	<!-- Search -->
	<symbol id="svgSearch" viewBox="0 0 24 24" >
		<g>
			<rect id="svg_1" transform="matrix(0.713342,0.700816,-0.713342,0.700816,18.6064,17.3762) " height="1.89031" width="7.56126" stroke="none"/>
			<path id="svg_2" stroke-width="2" d="m20.9303,10.7726c0,5.3807 -4.4448,9.7726 -9.9651,9.7726c-5.52042,0 -9.9652,-4.3919 -9.9652,-9.7726c0,-5.38062 4.44478,-9.7726 9.9652,-9.7726c5.5203,0 9.9651,4.39198 9.9651,9.7726z"/>
			<ellipse  ry="9.536424" rx="9.933775" id="svg_7" cy="10.735514" cx="11.00662"  stroke-opacity="null" stroke-width="1.5" fill="#fff"/>
		</g>
	</symbol>
	<!-- end Search -->
	<!-- iconsvg-1 -->
	<symbol id="iconsvg-1" viewBox="0 0 64 49">
		<g clip-path="url(#clip0_406480_4121)">
		<circle cx="21.5" cy="27.5" r="21.5" fill="#FF9900"/>
			<path fill-rule="evenodd" clip-rule="evenodd" d="M31.889 5.58656C31.9862 5.41721 32.2017 5.3591 32.3703 5.45675L52.9875 17.3974C53.1561 17.4951 53.214 17.7116 53.1168 17.8809C53.0195 18.0502 52.804 18.1084 52.6354 18.0107L32.0182 6.07C31.8496 5.97235 31.7917 5.7559 31.889 5.58656Z" fill="black"/>
			<path fill-rule="evenodd" clip-rule="evenodd" d="M39.9738 0.666143C40.7428 0.222265 41.615 -0.0114136 42.5028 -0.0114136C43.3907 -0.0114136 44.2629 0.222265 45.0318 0.666143C45.0321 0.666284 45.0323 0.666425 45.0326 0.666566L61.4759 10.0647C62.2443 10.5084 62.8825 11.1464 63.3265 11.9147C63.7705 12.683 64.0048 13.5546 64.0057 14.442V33.2389C64.0048 34.1264 63.7705 34.9979 63.3265 35.7662C62.8825 36.5346 62.2443 37.1726 61.4759 37.6163L61.4745 37.6171L45.0326 47.0144C45.0324 47.0145 45.0323 47.0145 45.0322 47.0146C44.2631 47.4586 43.3908 47.6924 42.5028 47.6924C41.6149 47.6924 40.7425 47.4586 39.9735 47.0146C39.9734 47.0145 39.9732 47.0145 39.9731 47.0144L23.5311 37.6171L23.5297 37.6163C22.7614 37.1726 22.1232 36.5346 21.6791 35.7662C21.2351 34.9979 21.0009 34.1264 21 33.2389V14.442C21.0009 13.5546 21.2351 12.683 21.6791 11.9147C22.1232 11.1464 22.7614 10.5084 23.5297 10.0647L23.5311 10.0639L39.9731 0.666566C39.9733 0.666425 39.9736 0.666284 39.9738 0.666143ZM42.5028 0.711517C41.7416 0.711517 40.9937 0.91194 40.3345 1.29264L40.3331 1.29344L23.8911 10.6907C23.8909 10.6909 23.8906 10.691 23.8904 10.6912C23.2321 11.0715 22.6853 11.6182 22.3049 12.2765C21.9243 12.935 21.7236 13.682 21.7228 14.4426V33.2384C21.7236 33.999 21.9243 34.746 22.3049 35.4045C22.6853 36.0627 23.2321 36.6094 23.8903 36.9897C23.8906 36.9899 23.8909 36.99 23.8911 36.9902L40.3345 46.3883C40.9937 46.769 41.7416 46.9694 42.5028 46.9694C43.2641 46.9694 44.0119 46.769 44.6712 46.3883L44.6726 46.3875L61.1145 36.9902C61.1148 36.99 61.1151 36.9899 61.1154 36.9897C61.7736 36.6094 62.3203 36.0627 62.7008 35.4045C63.0813 34.7459 63.2821 33.9988 63.2829 33.2382V14.4427C63.2821 13.6821 63.0813 12.935 62.7008 12.2765C62.3203 11.6182 61.7735 11.0715 61.1153 10.6912C61.115 10.691 61.1148 10.6909 61.1145 10.6907L44.6726 1.29344L44.6712 1.29264C44.0119 0.91194 43.2641 0.711517 42.5028 0.711517Z" fill="black"/>
			<path fill-rule="evenodd" clip-rule="evenodd" d="M21.7707 12.0905C21.8693 11.9219 22.0875 11.8642 22.2581 11.9618L42.322 23.4412L62.386 11.9618C62.5565 11.8642 62.7747 11.9219 62.8734 12.0905C62.972 12.2592 62.9137 12.475 62.7432 12.5726L42.5006 24.1542C42.3901 24.2174 42.2539 24.2174 42.1434 24.1542L21.9008 12.5726C21.7303 12.475 21.672 12.2592 21.7707 12.0905Z" fill="black"/>
			<path fill-rule="evenodd" clip-rule="evenodd" d="M42.3223 23.479C42.5219 23.479 42.6837 23.6372 42.6837 23.8323V46.9776C42.6837 47.1727 42.5219 47.3309 42.3223 47.3309C42.1227 47.3309 41.9609 47.1727 41.9609 46.9776V23.8323C41.9609 23.6372 42.1227 23.479 42.3223 23.479Z" fill="black"/>
		</g>
	</symbol>
	<!-- end iconsvg-1 -->
	<!-- iconsvg-2 -->
	<symbol id="iconsvg-2" viewBox="0 0 64 49">
		<g clip-path="url(#clip0_406480_4128)">
		<circle cx="21.5" cy="27.5" r="21" fill="#FF9900" stroke="#FF9900"/>
			<path fill-rule="evenodd" clip-rule="evenodd" d="M42.4097 15.7002C39.4169 15.7002 36.9908 18.1263 36.9908 21.119C36.9908 24.1118 39.4169 26.5379 42.4097 26.5379C45.4024 26.5379 47.8285 24.1118 47.8285 21.119C47.8285 18.1263 45.4024 15.7002 42.4097 15.7002ZM36.3135 21.119C36.3135 17.7522 39.0428 15.0228 42.4097 15.0228C45.7765 15.0228 48.5059 17.7522 48.5059 21.119C48.5059 24.4859 45.7765 27.2152 42.4097 27.2152C39.0428 27.2152 36.3135 24.4859 36.3135 21.119Z" fill="black"/>
			<path fill-rule="evenodd" clip-rule="evenodd" d="M42.5 0.678947C41.5696 0.678947 40.6774 1.04853 40.0195 1.70639C39.3617 2.36424 38.9921 3.25649 38.9921 4.18684V4.51387L38.9921 4.51522C38.9894 5.20044 38.7863 5.86991 38.408 6.44121C38.0296 7.01252 37.4925 7.46072 36.8627 7.73066C36.8204 7.74877 36.7749 7.7581 36.7289 7.7581H36.6447C36.0202 8.0183 35.3333 8.09285 34.6666 7.97197C33.9758 7.84672 33.3384 7.5174 32.8366 7.02649L32.8339 7.02387L32.7185 6.90844C32.3927 6.58229 32.0057 6.32341 31.5798 6.14688C31.154 5.97035 30.6975 5.87949 30.2365 5.87949C29.7755 5.87949 29.319 5.97035 28.8932 6.14688C28.4673 6.32341 28.0805 6.58215 27.7547 6.90831L27.7544 6.90857C27.4283 7.23436 27.1695 7.62124 26.993 8.04709C26.8165 8.47295 26.7256 8.92942 26.7256 9.39041C26.7256 9.8514 26.8165 10.3079 26.993 10.7337C27.1695 11.1596 27.4283 11.5465 27.7544 11.8722L27.8726 11.9904C28.3635 12.4923 28.6928 13.1297 28.8181 13.8205C28.9427 14.5078 28.8596 15.2165 28.5796 15.8562C28.3355 16.5136 27.9003 17.0831 27.3297 17.4911C26.7563 17.9013 26.0727 18.1294 25.3679 18.1459L25.36 18.146H25.1868C24.2565 18.146 23.3642 18.5156 22.7064 19.1734C22.0485 19.8313 21.6789 20.7235 21.6789 21.6539C21.6789 22.5842 22.0485 23.4765 22.7064 24.1343C23.3642 24.7922 24.2565 25.1618 25.1868 25.1618H25.5152C26.2004 25.1645 26.8699 25.3676 27.4412 25.7459C28.012 26.1239 28.4599 26.6605 28.7299 27.2896C29.0128 27.9314 29.0971 28.6432 28.972 29.3334C28.8467 30.0242 28.5174 30.6616 28.0265 31.1634L28.0239 31.1661L27.9084 31.2815C27.5823 31.6073 27.3234 31.9943 27.1469 32.4202C26.9704 32.846 26.8795 33.3025 26.8795 33.7635C26.8795 34.2245 26.9704 34.681 27.1469 35.1068C27.3234 35.5327 27.5822 35.9195 27.9083 36.2453L27.9086 36.2456C28.2344 36.5717 28.6212 36.8305 29.0471 37.007C29.4729 37.1835 29.9294 37.2744 30.3904 37.2744C30.8514 37.2744 31.3079 37.1835 31.7337 37.007C32.1596 36.8305 32.5465 36.5717 32.8722 36.2456L32.9904 36.1274C33.4923 35.6365 34.1297 35.3072 34.8205 35.1819C35.5078 35.0573 36.2165 35.1404 36.8562 35.4204C37.5136 35.6645 38.0831 36.0997 38.4911 36.6702C38.9013 37.2437 39.1294 37.9273 39.1459 38.6321L39.146 38.64V38.8132C39.146 39.7435 39.5156 40.6358 40.1734 41.2936C40.8313 41.9515 41.7235 42.3211 42.6539 42.3211C43.5842 42.3211 44.4765 41.9515 45.1343 41.2936C45.7922 40.6358 46.1618 39.7435 46.1618 38.8132V38.4861L46.1618 38.4848C46.1645 37.7996 46.3676 37.1301 46.7459 36.5588C47.1239 35.988 47.6604 35.5401 48.2894 35.2701C48.9313 34.9872 49.6431 34.9029 50.3334 35.028C51.0242 35.1533 51.6616 35.4826 52.1634 35.9735L52.1661 35.9761L52.2815 36.0916C52.6073 36.4177 52.9943 36.6766 53.4202 36.8531C53.846 37.0296 54.3025 37.1205 54.7635 37.1205C55.2245 37.1205 55.6809 37.0296 56.1068 36.8531C56.5326 36.6766 56.9195 36.4178 57.2453 36.0917L57.2456 36.0914C57.5717 35.7656 57.8305 35.3788 58.007 34.9529C58.1835 34.5271 58.2744 34.0706 58.2744 33.6096C58.2744 33.1486 58.1835 32.6921 58.007 32.2663C57.8305 31.8404 57.5717 31.4535 57.2456 31.1278L57.1274 31.0096C56.6365 30.5077 56.3072 29.8703 56.1819 29.1795C56.0568 28.4893 56.1411 27.7774 56.424 27.1355C56.694 26.5065 57.1419 25.97 57.7127 25.592C58.284 25.2137 58.9534 25.0106 59.6387 25.0079L59.64 25.0079L59.8132 25.0079C60.7435 25.0079 61.6358 24.6383 62.2936 23.9805C62.9515 23.3226 63.3211 22.4304 63.3211 21.5C63.3211 20.5696 62.9515 19.6774 62.2936 19.0195C61.6358 18.3617 60.7435 17.9921 59.8132 17.9921H59.4861L59.4848 17.9921C58.7996 17.9894 58.1301 17.7863 57.5588 17.408C56.9875 17.0296 56.5393 16.4925 56.2693 15.8627C56.2512 15.8204 56.2419 15.7749 56.2419 15.7289V15.6447C55.9817 15.0202 55.9071 14.3333 56.028 13.6666C56.1533 12.9758 56.4826 12.3384 56.9735 11.8366L56.9761 11.8339L57.0916 11.7185C57.4177 11.3927 57.6766 11.0057 57.8531 10.5798C58.0296 10.154 58.1205 9.6975 58.1205 9.23651C58.1205 8.77552 58.0296 8.31905 57.8531 7.8932C57.6766 7.46735 57.4178 7.08047 57.0917 6.75468L57.0914 6.75441C56.7656 6.42826 56.3788 6.16952 55.9529 5.99299C55.5271 5.81646 55.0706 5.72559 54.6096 5.72559C54.1486 5.72559 53.6921 5.81646 53.2663 5.99299C52.8404 6.16952 52.4535 6.42826 52.1277 6.75441L52.0096 6.87261C51.5077 7.36352 50.8703 7.69282 50.1795 7.81807C49.4893 7.94321 48.7775 7.85892 48.1357 7.57605C47.5066 7.30605 46.97 6.85812 46.592 6.28732C46.2137 5.71602 46.0106 5.04655 46.0079 4.36133L46.0079 4.35997V4.18684C46.0079 3.25649 45.6383 2.36424 44.9805 1.70639C44.3226 1.04853 43.4304 0.678947 42.5 0.678947ZM39.5395 1.2263C40.3246 0.441113 41.3896 0 42.5 0C43.6104 0 44.6754 0.441113 45.4605 1.2263C46.2457 2.01148 46.6868 3.07642 46.6868 4.18684L46.6868 4.35862C46.6868 4.35883 46.6868 4.35904 46.6868 4.35925C46.6892 4.91184 46.853 5.45171 47.1581 5.91244C47.4633 6.37335 47.8967 6.73494 48.4048 6.95271L48.4081 6.95415C48.9263 7.18283 49.5011 7.25107 50.0584 7.15002C50.6151 7.04908 51.1288 6.78385 51.5335 6.38849C51.5339 6.38807 51.5344 6.38766 51.5348 6.38724L51.6474 6.27459C51.6474 6.27455 51.6474 6.27463 51.6474 6.27459C52.0362 5.88537 52.4981 5.57647 53.0063 5.36579C53.5146 5.1551 54.0594 5.04664 54.6096 5.04664C55.1598 5.04664 55.7046 5.1551 56.2129 5.36579C56.7211 5.57645 57.1827 5.88517 57.5715 6.27432C57.9608 6.66317 58.2696 7.12493 58.4803 7.6332C58.691 8.14148 58.7995 8.6863 58.7995 9.23651C58.7995 9.78673 58.691 10.3315 58.4803 10.8398C58.2696 11.3481 57.9608 11.8099 57.5715 12.1987L57.4589 12.3113C57.4584 12.3118 57.458 12.3122 57.4576 12.3127C57.0622 12.7173 56.797 13.2311 56.6961 13.7877C56.595 14.345 56.6633 14.9198 56.8919 15.438C56.911 15.4812 56.9208 15.5279 56.9208 15.5751V15.6572C57.1409 16.1386 57.4916 16.5492 57.9337 16.8419C58.3944 17.147 58.9343 17.3108 59.4869 17.3132H59.8132C60.9236 17.3132 61.9885 17.7543 62.7737 18.5395C63.5589 19.3246 64 20.3896 64 21.5C64 22.6104 63.5589 23.6754 62.7737 24.4605C61.9885 25.2457 60.9236 25.6868 59.8132 25.6868L59.6414 25.6868C59.6412 25.6868 59.641 25.6868 59.6407 25.6868C59.0882 25.6892 58.5483 25.853 58.0876 26.1581C57.6267 26.4633 57.2651 26.8967 57.0473 27.4048L57.0458 27.4081C56.8172 27.9263 56.7489 28.5011 56.85 29.0584C56.9509 29.615 57.2161 30.1287 57.6114 30.5334C57.6119 30.5339 57.6123 30.5343 57.6127 30.5348L57.7254 30.6474C57.7255 30.6474 57.7254 30.6474 57.7254 30.6474C58.1146 31.0362 58.4235 31.4981 58.6342 32.0063C58.8449 32.5146 58.9534 33.0594 58.9534 33.6096C58.9534 34.1598 58.8449 34.7046 58.6342 35.2129C58.4235 35.7211 58.1148 36.1828 57.7255 36.5716C57.3367 36.9609 56.875 37.2696 56.3668 37.4803C55.8585 37.691 55.3137 37.7995 54.7635 37.7995C54.2133 37.7995 53.6684 37.691 53.1602 37.4803C52.652 37.2696 52.1902 36.9609 51.8014 36.5716C51.8014 36.5716 51.8015 36.5717 51.8014 36.5716L51.6887 36.4589C51.6882 36.4584 51.6877 36.458 51.6873 36.4575C51.2826 36.0622 50.7689 35.797 50.2122 35.6961C49.655 35.595 49.0802 35.6633 48.562 35.8919L48.5587 35.8934C48.0506 36.1112 47.6172 36.4728 47.312 36.9337C47.0069 37.3944 46.8431 37.9343 46.8407 38.4869C46.8407 38.4871 46.8407 38.4873 46.8407 38.4875L46.8407 38.8132C46.8407 39.9236 46.3996 40.9885 45.6144 41.7737C44.8292 42.5589 43.7643 43 42.6539 43C41.5435 43 40.4785 42.5589 39.6933 41.7737C38.9082 40.9885 38.4671 39.9236 38.4671 38.8132V38.6441C38.453 38.0768 38.269 37.5268 37.9389 37.0652C37.608 36.6026 37.1456 36.2502 36.6118 36.0539C36.6082 36.0525 36.6046 36.0512 36.601 36.0497C36.5979 36.0485 36.5949 36.0472 36.5919 36.0458C36.0737 35.8172 35.4989 35.7489 34.9416 35.85C34.385 35.9509 33.8712 36.2161 33.4665 36.6115C33.4661 36.6119 33.4657 36.6123 33.4652 36.6128L33.3526 36.7254C32.9638 37.1147 32.502 37.4235 31.9937 37.6342C31.4854 37.8449 30.9406 37.9534 30.3904 37.9534C29.8402 37.9534 29.2954 37.8449 28.7871 37.6342C28.2788 37.4235 27.8171 37.1147 27.4282 36.7254C27.0391 36.3366 26.7303 35.875 26.5197 35.3668C26.309 34.8585 26.2005 34.3137 26.2005 33.7635C26.2005 33.2133 26.309 32.6685 26.5197 32.1602C26.7304 31.652 27.0391 31.1902 27.4284 30.8014C27.4284 30.8014 27.4283 30.8015 27.4284 30.8014L27.5411 30.6887C27.5416 30.6882 27.542 30.6878 27.5424 30.6874C27.9378 30.2827 28.203 29.7689 28.3039 29.2122C28.405 28.655 28.3367 28.0802 28.1081 27.562L28.1066 27.5587C27.8888 27.0506 27.5272 26.6172 27.0663 26.312C26.6056 26.0069 26.0657 25.8431 25.5131 25.8407C25.5129 25.8407 25.5127 25.8407 25.5125 25.8407L25.1868 25.8407C24.0764 25.8407 23.0115 25.3996 22.2263 24.6144C21.4411 23.8293 21 22.7643 21 21.6539C21 20.5435 21.4411 19.4785 22.2263 18.6933C23.0115 17.9082 24.0764 17.4671 25.1868 17.4671H25.3559C25.9232 17.453 26.4732 17.269 26.9348 16.9389C27.3974 16.608 27.7498 16.1456 27.9461 15.6118C27.9486 15.6051 27.9513 15.5984 27.9542 15.5919C28.1828 15.0737 28.2511 14.4989 28.15 13.9416C28.0491 13.3849 27.7839 12.8712 27.3885 12.4665L27.2746 12.3526C26.8853 11.9638 26.5765 11.502 26.3658 10.9937C26.1551 10.4854 26.0466 9.94062 26.0466 9.39041C26.0466 8.84019 26.1551 8.29537 26.3658 7.7871C26.5765 7.27882 26.8853 6.81706 27.2746 6.42822C27.6634 6.03907 28.125 5.73034 28.6332 5.51969C29.1415 5.30899 29.6863 5.20054 30.2365 5.20054C30.7867 5.20054 31.3315 5.30899 31.8398 5.51969C32.348 5.73036 32.8098 6.03913 33.1986 6.42835C33.1986 6.42839 33.1985 6.42831 33.1986 6.42835L33.3127 6.54243C33.7173 6.93777 34.2311 7.20298 34.7877 7.30391C35.345 7.40496 35.9198 7.33674 36.438 7.10806C36.4812 7.089 36.5279 7.07916 36.5751 7.07916H36.6572C37.1386 6.85908 37.5492 6.50838 37.8419 6.06633C38.147 5.6056 38.3108 5.06574 38.3132 4.51315V4.18684C38.3132 3.07642 38.7543 2.01148 39.5395 1.2263Z" fill="black"/>
		</g>
	</symbol>
	<!-- end iconsvg-1 -->
	<!-- Vkontakte -->
	<symbol id="svgVk" viewBox="0 0 41 40">
		<g>
			<path d="M20.082 0C9.03671 0 0.0820312 8.95427 0.0820312 20C0.0820312 31.0457 9.03671 40 20.082 40C31.1274 40 40.082 31.0457 40.082 20C40.082 8.95427 31.1274 0 20.082 0ZM30.2271 22.1631C31.1593 23.0736 32.1455 23.9304 32.9823 24.935C33.353 25.3794 33.7025 25.839 33.9685 26.3558C34.3482 27.0928 34.0053 27.901 33.3457 27.9448L29.2483 27.9439C28.1901 28.0315 27.3479 27.6047 26.6379 26.8812C26.0712 26.3047 25.5454 25.6888 24.9995 25.0926C24.7765 24.8479 24.5416 24.6175 24.2617 24.4362C23.7031 24.0728 23.2178 24.1841 22.8978 24.7677C22.5716 25.3614 22.4972 26.0194 22.4661 26.6803C22.4215 27.6464 22.1301 27.8989 21.1607 27.9443C19.0893 28.0413 17.1239 27.7271 15.2972 26.6828C13.6857 25.7616 12.4385 24.4616 11.3516 22.9897C9.23518 20.1203 7.61431 16.971 6.15794 13.7314C5.83016 13.0017 6.06996 12.6114 6.87487 12.5962C8.21216 12.5704 9.54945 12.5737 10.8867 12.595C11.431 12.6036 11.7911 12.915 12.0002 13.4285C12.7228 15.2065 13.6088 16.8982 14.719 18.4671C15.0148 18.8849 15.3168 19.3015 15.7469 19.5965C16.2216 19.9223 16.5833 19.8146 16.8071 19.2847C16.9504 18.9479 17.0122 18.5878 17.0433 18.2269C17.1497 16.9907 17.1623 15.7549 16.9782 14.5236C16.8636 13.753 16.4303 13.2554 15.6622 13.1098C15.271 13.0357 15.3283 12.8908 15.5186 12.6674C15.8488 12.2811 16.1581 12.0421 16.7765 12.0421L21.4058 12.0413C22.1354 12.1846 22.2991 12.5119 22.3981 13.2469L22.4022 18.3914C22.3936 18.6758 22.545 19.5188 23.0557 19.705C23.4649 19.84 23.735 19.5118 23.9797 19.2528C25.0899 18.0747 25.8809 16.6842 26.5892 15.245C26.9019 14.6103 27.1715 13.9536 27.4334 13.2956C27.6282 12.809 27.931 12.5696 28.4802 12.5778L32.9381 12.5831C33.0694 12.5831 33.2029 12.5843 33.333 12.6069C34.0843 12.7353 34.2901 13.0586 34.0577 13.7915C33.6919 14.943 32.9811 15.9022 32.2862 16.8638C31.5415 17.8934 30.7472 18.887 30.0098 19.921C29.3322 20.8663 29.3858 21.3422 30.2271 22.1631Z"/>
		</g>
	</symbol>
		<!-- end Vkontakte -->
	<!-- Ok -->
	<symbol id="svgOk" viewBox="0 0 40 40">
		<g>
			<path d="M17.1369 13.3208C17.1369 14.9697 18.4736 16.3066 20.1225 16.3066C21.7714 16.3066 23.1082 14.9697 23.1082 13.3208C23.1082 11.6719 21.7714 10.3352 20.1225 10.3352C18.4736 10.3352 17.1369 11.6719 17.1369 13.3208Z" />
			<path fill-rule="evenodd" clip-rule="evenodd" d="M20 40C31.0457 40 40 31.0457 40 20C40 8.95431 31.0457 0 20 0C8.9543 0 0 8.95431 0 20C0 31.0457 8.9543 40 20 40ZM12.9 13.3207C12.9 9.33189 16.1336 6.09819 20.1225 6.09819C24.1115 6.09819 27.3451 9.33189 27.3451 13.3207C27.3451 17.3097 24.1115 20.5436 20.1225 20.5436C16.1336 20.5436 12.9 17.3097 12.9 13.3207ZM27.3882 24.2587C27.2966 24.3322 25.5638 25.7015 22.6723 26.2905L27.0369 30.6162C27.8045 31.3825 27.8054 32.6259 27.0391 33.3935C26.2728 34.1609 25.0296 34.1622 24.2618 33.3957L20.0245 29.2693L16.1759 33.3691C15.7906 33.7688 15.2766 33.9698 14.7621 33.9698C14.2713 33.9698 13.7802 33.7872 13.3991 33.4197C12.6183 32.6669 12.5957 31.4237 13.3485 30.6429L17.4913 26.3134C14.5188 25.7382 12.7145 24.3332 12.6216 24.2587C11.7755 23.5801 11.6396 22.3442 12.3182 21.498C12.9966 20.6519 14.2325 20.516 15.0788 21.1944C15.0966 21.2089 16.9838 22.6266 20.0244 22.6286C23.0651 22.6266 24.9132 21.2089 24.9311 21.1944C25.7774 20.516 27.0132 20.6519 27.6917 21.498C28.3702 22.3442 28.2343 23.5801 27.3882 24.2587Z"/>
		</g>
	</symbol>
	<!-- end Ok -->
	<!-- cross -->
			<symbol id="cross" viewBox="0 0 50 50">
		<path fill-rule="evenodd" clip-rule="evenodd" d="M25.0571 24.0571L25.0571 9L25.9429 9L25.9429 24.0571L33.8835 24.0571L41 24.0571L41 24.9429L25.9429 24.9429L25.9429 40L25.0571 40L25.0571 24.9429L10 24.9429L10 24.0571L25.0571 24.0571Z" />
		</symbol>
			<!-- end cross -->

<symbol id="svgLogofooter" viewBox="0 0 225 72">
	<g>
		<path d="M70.5385 36.2905C69.4378 36.9224 68.1026 37.4218 66.533 37.7887C64.9634 38.1556 63.3326 38.3391 61.6407 38.3391C59.3576 38.3391 57.4109 38.0639 55.8006 37.5135C54.2106 36.9632 53.0079 36.1987 52.1925 35.2203C51.3975 34.2418 51 33.1105 51 31.8263C51 30.7051 51.3058 29.7165 51.9173 28.8603C52.5288 28.0042 53.3748 27.3417 54.4552 26.8728C53.6194 26.4447 52.9773 25.8536 52.5288 25.0994C52.1008 24.3248 51.8867 23.4788 51.8867 22.5615C51.8867 21.3792 52.2536 20.2988 52.9875 19.3204C53.7417 18.3419 54.8832 17.5571 56.4121 16.9659C57.9409 16.3748 59.8265 16.0792 62.0688 16.0792C63.4753 16.0792 64.8615 16.2117 66.2272 16.4767C67.593 16.7417 68.7957 17.0984 69.8353 17.5469L68.1841 22.0723C66.2884 21.2365 64.3315 20.8186 62.3134 20.8186C60.8661 20.8186 59.7857 21.0123 59.0723 21.3996C58.3588 21.7665 58.0021 22.2863 58.0021 22.959C58.0021 24.1821 58.8888 24.7936 60.6623 24.7936H66.7165V29.4107H60.2648C59.2251 29.4107 58.4403 29.584 57.9103 29.9305C57.3804 30.2566 57.1154 30.7459 57.1154 31.3982C57.1154 32.0913 57.5027 32.6314 58.2773 33.0187C59.0519 33.4061 60.2546 33.5997 61.8853 33.5997C63.0472 33.5997 64.2397 33.4468 65.4628 33.1411C66.7063 32.8149 67.7866 32.3766 68.7039 31.8263L70.5385 36.2905Z" fill="white"/>
		<path d="M86.1224 29.2272C88.0182 29.8591 88.9661 31.1638 88.9661 33.1411C88.9661 34.6291 88.3851 35.8012 87.2232 36.6574C86.0613 37.4931 84.349 37.911 82.0863 37.911H72.7604V21.3384H81.6582C83.819 21.3384 85.4905 21.7155 86.6728 22.4698C87.8755 23.224 88.4768 24.284 88.4768 25.6497C88.4768 26.4447 88.273 27.148 87.8653 27.7595C87.4576 28.3711 86.8767 28.8603 86.1224 29.2272ZM77.9584 28.0042H81.1384C82.4838 28.0042 83.1565 27.5047 83.1565 26.5059C83.1565 25.5478 82.4838 25.0688 81.1384 25.0688H77.9584V28.0042ZM81.5665 34.1501C82.973 34.1501 83.6763 33.6405 83.6763 32.6213C83.6763 31.602 82.9934 31.0924 81.6276 31.0924H77.9584V34.1501H81.5665Z" fill="white"/>
		<path d="M99.6672 32.0097H97.7103V37.911H91.9007V21.3384H97.7103V27.4538H99.7895L103.856 21.3384H110.002L104.437 29.2884L110.369 37.911H103.52L99.6672 32.0097Z" fill="white"/>
		<path d="M129.174 21.3384V37.911H123.364V25.9555H119.175L119.053 28.4934C118.971 30.6541 118.757 32.4378 118.411 33.8443C118.064 35.2509 117.493 36.3516 116.698 37.1466C115.903 37.9212 114.813 38.3085 113.427 38.3085C112.713 38.3085 111.775 38.176 110.613 37.911L110.858 33.1716C111.225 33.2124 111.47 33.2328 111.592 33.2328C112.224 33.2328 112.703 33.0289 113.029 32.6213C113.355 32.2136 113.579 31.6734 113.702 31.0007C113.824 30.3076 113.906 29.3903 113.946 28.2488L114.191 21.3384H129.174Z" fill="white"/>
		<path d="M150.14 21.3384V37.911H144.605V36.1682C143.994 36.8205 143.26 37.3199 142.404 37.6664C141.568 38.013 140.671 38.1862 139.713 38.1862C137.552 38.1862 135.83 37.5543 134.545 36.2905C133.282 35.0266 132.65 33.1309 132.65 30.6032V21.3384H138.459V29.6553C138.459 32.0403 139.387 33.2328 141.242 33.2328C142.159 33.2328 142.903 32.9168 143.474 32.2849C144.045 31.6326 144.33 30.644 144.33 29.319V21.3384H150.14Z" fill="white"/>
		<path d="M171.682 21.3384V34.8839C171.682 37.962 170.847 40.2654 169.175 41.7943C167.504 43.3435 165.098 44.1181 161.959 44.1181C160.328 44.1181 158.799 43.9347 157.372 43.5677C155.946 43.2008 154.733 42.6606 153.734 41.9472L155.844 37.8805C156.516 38.4308 157.362 38.8589 158.382 39.1647C159.421 39.4908 160.44 39.6539 161.439 39.6539C162.968 39.6539 164.089 39.3176 164.803 38.6449C165.516 37.9722 165.873 36.9733 165.873 35.6483V35.098C164.752 36.4026 163.111 37.0549 160.95 37.0549C159.482 37.0549 158.127 36.7287 156.883 36.0764C155.64 35.4037 154.651 34.466 153.917 33.2634C153.183 32.0403 152.817 30.6338 152.817 29.0438C152.817 27.4742 153.183 26.088 153.917 24.8853C154.651 23.6623 155.64 22.7246 156.883 22.0723C158.127 21.3996 159.482 21.0632 160.95 21.0632C163.315 21.0632 165.047 21.8277 166.148 23.3565V21.3384H171.682ZM162.326 32.4378C163.366 32.4378 164.222 32.1218 164.894 31.4899C165.587 30.858 165.934 30.0426 165.934 29.0438C165.934 28.0449 165.598 27.2397 164.925 26.6282C164.252 25.9963 163.386 25.6803 162.326 25.6803C161.266 25.6803 160.389 25.9963 159.696 26.6282C159.024 27.2397 158.687 28.0449 158.687 29.0438C158.687 30.0426 159.034 30.858 159.727 31.4899C160.42 32.1218 161.286 32.4378 162.326 32.4378Z" fill="white"/>
		<path d="M60.4259 46.0097V55.9885H57.6319V48.2478H53.8399V55.9885H51.0601V46.0097H60.4259Z" fill="white"/>
		<path d="M66.5363 48.1338C67.3822 48.1338 68.1187 48.2954 68.7459 48.6185C69.3732 48.9416 69.8531 49.4073 70.1857 50.0155C70.5278 50.6142 70.6989 51.3175 70.6989 52.1253C70.6989 52.9236 70.5421 53.6269 70.2285 54.2351C69.9149 54.8338 69.4729 55.2995 68.9027 55.6321C68.3325 55.9552 67.672 56.1168 66.9212 56.1168C66.0374 56.1168 65.3436 55.846 64.84 55.3042V58.7541H62.1314V52.1538C62.1314 51.3555 62.312 50.6522 62.6731 50.044C63.0343 49.4358 63.5475 48.9654 64.2127 48.6327C64.878 48.3001 65.6525 48.1338 66.5363 48.1338ZM66.408 53.9642C66.8927 53.9642 67.2824 53.7979 67.577 53.4653C67.8811 53.1232 68.0332 52.6765 68.0332 52.1253C68.0332 51.5741 67.8811 51.1322 67.577 50.7995C67.2824 50.4574 66.8927 50.2864 66.408 50.2864C65.9234 50.2864 65.5337 50.4574 65.2391 50.7995C64.9445 51.1322 64.7972 51.5741 64.7972 52.1253C64.7972 52.686 64.9397 53.1327 65.2248 53.4653C65.5195 53.7979 65.9139 53.9642 66.408 53.9642Z" fill="white"/>
		<path d="M75.8141 56.1168C74.9873 56.1168 74.2413 55.9457 73.576 55.6036C72.9108 55.2615 72.3881 54.7863 72.008 54.1781C71.6373 53.5698 71.452 52.8808 71.452 52.111C71.452 51.3508 71.6373 50.6665 72.008 50.0583C72.3881 49.45 72.906 48.9796 73.5618 48.647C74.227 48.3049 74.9778 48.1338 75.8141 48.1338C76.6505 48.1338 77.4012 48.3049 78.0665 48.647C78.7317 48.9796 79.2497 49.45 79.6203 50.0583C79.991 50.657 80.1763 51.3413 80.1763 52.111C80.1763 52.8808 79.991 53.5698 79.6203 54.1781C79.2497 54.7863 78.7317 55.2615 78.0665 55.6036C77.4012 55.9457 76.6505 56.1168 75.8141 56.1168ZM75.8141 53.9642C76.2893 53.9642 76.679 53.8027 76.9831 53.4796C77.2872 53.1469 77.4393 52.6908 77.4393 52.111C77.4393 51.5408 77.2872 51.0942 76.9831 50.771C76.679 50.4479 76.2893 50.2864 75.8141 50.2864C75.339 50.2864 74.9493 50.4479 74.6452 50.771C74.3411 51.0942 74.189 51.5408 74.189 52.111C74.189 52.6908 74.3411 53.1469 74.6452 53.4796C74.9493 53.8027 75.339 53.9642 75.8141 53.9642Z" fill="white"/>
		<path d="M85.5379 54.0498C85.9085 54.0498 86.2269 53.9975 86.493 53.893C86.7686 53.7884 87.0442 53.6174 87.3198 53.3798L88.7311 54.8623C87.9993 55.6986 86.9064 56.1168 85.4523 56.1168C84.5495 56.1168 83.7559 55.9457 83.0717 55.6036C82.3874 55.2615 81.8552 54.7863 81.4751 54.1781C81.1044 53.5698 80.9191 52.8808 80.9191 52.111C80.9191 51.3508 81.1044 50.6712 81.4751 50.0725C81.8457 49.4643 82.3542 48.9891 83.0004 48.647C83.6562 48.3049 84.3879 48.1338 85.1957 48.1338C85.9465 48.1338 86.6308 48.2906 87.2485 48.6042C87.8758 48.9083 88.3747 49.3598 88.7453 49.9585C89.116 50.5477 89.3013 51.251 89.3013 52.0683L83.7845 53.1232C84.0791 53.7409 84.6635 54.0498 85.5379 54.0498ZM85.21 50.0583C84.7443 50.0583 84.3642 50.2056 84.0696 50.5002C83.775 50.7853 83.6086 51.1987 83.5706 51.7404L86.7068 51.1274C86.6118 50.8043 86.4312 50.5477 86.1651 50.3576C85.899 50.1581 85.5806 50.0583 85.21 50.0583Z" fill="white"/>
		<path d="M94.2137 53.2372H93.3014V55.9885H90.5928V48.2621H93.3014V51.1132H94.2707L96.1667 48.2621H99.032L96.4376 51.9685L99.2031 55.9885H96.0099L94.2137 53.2372Z" fill="white"/>
		<path d="M110.165 48.1338C111.116 48.1338 111.871 48.4189 112.432 48.9891C113.002 49.5593 113.287 50.4194 113.287 51.5693V55.9885H110.579V52.0113C110.579 51.4695 110.474 51.0704 110.265 50.8138C110.066 50.5572 109.78 50.4289 109.41 50.4289C109.001 50.4289 108.673 50.5715 108.426 50.8566C108.179 51.1417 108.056 51.5741 108.056 52.1538V55.9885H105.347V52.0113C105.347 50.9564 104.957 50.4289 104.178 50.4289C103.76 50.4289 103.427 50.5715 103.18 50.8566C102.933 51.1417 102.81 51.5741 102.81 52.1538V55.9885H100.101V48.2621H102.681V49.0746C102.966 48.761 103.304 48.5282 103.693 48.3761C104.093 48.2146 104.525 48.1338 104.991 48.1338C105.532 48.1338 106.017 48.2336 106.445 48.4332C106.872 48.6327 107.219 48.9368 107.485 49.3455C107.789 48.9558 108.174 48.6565 108.64 48.4474C109.106 48.2383 109.614 48.1338 110.165 48.1338Z" fill="white"/>
		<path d="M114.927 48.2621H117.621V51.1274H120.401V48.2621H123.11V55.9885H120.401V53.28H117.621V55.9885H114.927V48.2621Z" fill="white"/>
		<path d="M128.615 56.2166C126.058 56.2166 124.78 55.1189 124.78 52.9236V48.2621H127.474V50.714C127.674 50.581 127.94 50.4717 128.272 50.3861C128.615 50.3006 129.004 50.2578 129.441 50.2578C130.392 50.2578 131.138 50.5002 131.679 50.9849C132.221 51.46 132.492 52.1681 132.492 53.1089C132.492 54.1258 132.14 54.9003 131.437 55.4325C130.743 55.9552 129.802 56.2166 128.615 56.2166ZM133.133 48.2621H135.842V55.9885H133.133V48.2621ZM128.615 54.3634C128.985 54.3634 129.266 54.2541 129.456 54.0355C129.646 53.8169 129.741 53.5271 129.741 53.1659C129.741 52.8143 129.646 52.5387 129.456 52.3391C129.266 52.1396 128.99 52.0398 128.629 52.0398C128.372 52.0398 128.144 52.0873 127.945 52.1823C127.745 52.2774 127.588 52.4057 127.474 52.5672V53.1659C127.474 53.5366 127.569 53.8312 127.759 54.0498C127.949 54.2589 128.234 54.3634 128.615 54.3634Z" fill="white"/>
		<path d="M141.752 54.0498C142.123 54.0498 142.441 53.9975 142.707 53.893C142.983 53.7884 143.258 53.6174 143.534 53.3798L144.945 54.8623C144.213 55.6986 143.12 56.1168 141.666 56.1168C140.764 56.1168 139.97 55.9457 139.286 55.6036C138.602 55.2615 138.069 54.7863 137.689 54.1781C137.319 53.5698 137.133 52.8808 137.133 52.111C137.133 51.3508 137.319 50.6712 137.689 50.0725C138.06 49.4643 138.568 48.9891 139.215 48.647C139.87 48.3049 140.602 48.1338 141.41 48.1338C142.161 48.1338 142.845 48.2906 143.463 48.6042C144.09 48.9083 144.589 49.3598 144.959 49.9585C145.33 50.5477 145.515 51.251 145.515 52.0683L139.999 53.1232C140.293 53.7409 140.878 54.0498 141.752 54.0498ZM141.424 50.0583C140.958 50.0583 140.578 50.2056 140.284 50.5002C139.989 50.7853 139.823 51.1987 139.785 51.7404L142.921 51.1274C142.826 50.8043 142.645 50.5477 142.379 50.3576C142.113 50.1581 141.795 50.0583 141.424 50.0583Z" fill="white"/>
		<path d="M154.833 56.1168C153.978 56.1168 153.213 55.9457 152.538 55.6036C151.863 55.2615 151.336 54.7863 150.955 54.1781C150.585 53.5698 150.4 52.8808 150.4 52.111C150.4 51.3413 150.585 50.657 150.955 50.0583C151.336 49.45 151.863 48.9796 152.538 48.647C153.213 48.3049 153.978 48.1338 154.833 48.1338C155.707 48.1338 156.463 48.3239 157.1 48.704C157.736 49.0746 158.188 49.5926 158.454 50.2578L156.358 51.327C156.007 50.6332 155.493 50.2864 154.819 50.2864C154.334 50.2864 153.93 50.4479 153.607 50.771C153.293 51.0942 153.137 51.5408 153.137 52.111C153.137 52.6908 153.293 53.1469 153.607 53.4796C153.93 53.8027 154.334 53.9642 154.819 53.9642C155.493 53.9642 156.007 53.6174 156.358 52.9236L158.454 53.9928C158.188 54.658 157.736 55.1807 157.1 55.5608C156.463 55.9315 155.707 56.1168 154.833 56.1168Z" fill="white"/>
		<path d="M167.541 48.2621V55.9885H164.961V55.1759C164.676 55.4801 164.334 55.7129 163.935 55.8745C163.545 56.036 163.127 56.1168 162.68 56.1168C161.673 56.1168 160.87 55.8222 160.271 55.233C159.682 54.6437 159.387 53.7599 159.387 52.5815V48.2621H162.096V52.1396C162.096 53.2515 162.528 53.8074 163.393 53.8074C163.821 53.8074 164.167 53.6601 164.433 53.3655C164.7 53.0614 164.833 52.6005 164.833 51.9827V48.2621H167.541Z" fill="white"/>
		<path d="M173.237 56.1168C172.382 56.1168 171.616 55.9457 170.942 55.6036C170.267 55.2615 169.74 54.7863 169.359 54.1781C168.989 53.5698 168.803 52.8808 168.803 52.111C168.803 51.3413 168.989 50.657 169.359 50.0583C169.74 49.45 170.267 48.9796 170.942 48.647C171.616 48.3049 172.382 48.1338 173.237 48.1338C174.111 48.1338 174.867 48.3239 175.503 48.704C176.14 49.0746 176.592 49.5926 176.858 50.2578L174.762 51.327C174.411 50.6332 173.897 50.2864 173.223 50.2864C172.738 50.2864 172.334 50.4479 172.011 50.771C171.697 51.0942 171.54 51.5408 171.54 52.111C171.54 52.6908 171.697 53.1469 172.011 53.4796C172.334 53.8027 172.738 53.9642 173.223 53.9642C173.897 53.9642 174.411 53.6174 174.762 52.9236L176.858 53.9928C176.592 54.658 176.14 55.1807 175.503 55.5608C174.867 55.9315 174.111 56.1168 173.237 56.1168Z" fill="white"/>
		<path d="M188.055 48.1338C189.005 48.1338 189.761 48.4189 190.321 48.9891C190.892 49.5593 191.177 50.4194 191.177 51.5693V55.9885H188.468V52.0113C188.468 51.4695 188.364 51.0704 188.155 50.8138C187.955 50.5572 187.67 50.4289 187.299 50.4289C186.891 50.4289 186.563 50.5715 186.316 50.8566C186.069 51.1417 185.945 51.5741 185.945 52.1538V55.9885H183.237V52.0113C183.237 50.9564 182.847 50.4289 182.068 50.4289C181.649 50.4289 181.317 50.5715 181.07 50.8566C180.823 51.1417 180.699 51.5741 180.699 52.1538V55.9885H177.991V48.2621H180.571V49.0746C180.856 48.761 181.193 48.5282 181.583 48.3761C181.982 48.2146 182.414 48.1338 182.88 48.1338C183.422 48.1338 183.907 48.2336 184.334 48.4332C184.762 48.6327 185.109 48.9368 185.375 49.3455C185.679 48.9558 186.064 48.6565 186.53 48.4474C186.995 48.2383 187.504 48.1338 188.055 48.1338Z" fill="white"/>
		<path d="M196.908 54.0498C197.279 54.0498 197.597 53.9975 197.863 53.893C198.139 53.7884 198.414 53.6174 198.69 53.3798L200.101 54.8623C199.369 55.6986 198.277 56.1168 196.822 56.1168C195.92 56.1168 195.126 55.9457 194.442 55.6036C193.758 55.2615 193.225 54.7863 192.845 54.1781C192.475 53.5698 192.289 52.8808 192.289 52.111C192.289 51.3508 192.475 50.6712 192.845 50.0725C193.216 49.4643 193.724 48.9891 194.371 48.647C195.026 48.3049 195.758 48.1338 196.566 48.1338C197.317 48.1338 198.001 48.2906 198.619 48.6042C199.246 48.9083 199.745 49.3598 200.115 49.9585C200.486 50.5477 200.671 51.251 200.671 52.0683L195.155 53.1232C195.449 53.7409 196.034 54.0498 196.908 54.0498ZM196.58 50.0583C196.114 50.0583 195.734 50.2056 195.44 50.5002C195.145 50.7853 194.979 51.1987 194.941 51.7404L198.077 51.1274C197.982 50.8043 197.801 50.5477 197.535 50.3576C197.269 50.1581 196.951 50.0583 196.58 50.0583Z" fill="white"/>
		<path d="M209.461 55.9885V51.9257L207.48 55.3042H206.325L204.401 51.8687V55.9885H201.963V48.2621H204.814L206.967 52.2964L209.333 48.2621H211.885L211.899 55.9885H209.461Z" fill="white"/>
		<path d="M217.404 56.2166C214.848 56.2166 213.57 55.1189 213.57 52.9236V48.2621H216.264V50.714C216.464 50.581 216.73 50.4717 217.062 50.3861C217.404 50.3006 217.794 50.2578 218.231 50.2578C219.182 50.2578 219.928 50.5002 220.469 50.9849C221.011 51.46 221.282 52.1681 221.282 53.1089C221.282 54.1258 220.93 54.9003 220.227 55.4325C219.533 55.9552 218.592 56.2166 217.404 56.2166ZM221.923 48.2621H224.632V55.9885H221.923V48.2621ZM217.404 54.3634C217.775 54.3634 218.055 54.2541 218.245 54.0355C218.436 53.8169 218.531 53.5271 218.531 53.1659C218.531 52.8143 218.436 52.5387 218.245 52.3391C218.055 52.1396 217.78 52.0398 217.419 52.0398C217.162 52.0398 216.934 52.0873 216.734 52.1823C216.535 52.2774 216.378 52.4057 216.264 52.5672V53.1659C216.264 53.5366 216.359 53.8312 216.549 54.0498C216.739 54.2589 217.024 54.3634 217.404 54.3634Z" fill="white"/>
		<path d="M9.34478 42.7145L17.3505 24.2755H20.0363V29.4921L14.3548 42.7145H18.5901V40.3386C18.5901 39.7601 19.5542 39.7188 20.0363 39.7704V47.0531C18.7141 47.0531 18.5212 46.6054 18.5901 46.3816V44.3156H13.5801L1.18409 72H0.719238L3.86988 62.4447C3.86988 62.4447 1.08079 61.3601 2.01049 59.0359C2.94018 56.7116 8.51838 44.3156 8.51838 44.3156H2.01049V42.7145H9.34478Z" fill="#FF9900"/>
		<path d="M30.2113 42.7145L22.2056 24.2755H19.5198V29.4921L25.2013 42.7145H20.966V40.3386C20.966 39.7601 20.0019 39.7188 19.5198 39.7704V47.0531C20.8421 47.0531 21.0349 46.6054 20.966 46.3816V44.3156H25.9761L38.372 72H38.8369L35.6862 62.4447C35.6862 62.4447 38.4753 61.3601 37.5456 59.0359C36.6159 56.7116 31.0377 44.3156 31.0377 44.3156H37.5456V42.7145H30.2113Z" fill="#FF9900"/>
		<path fill-rule="evenodd" clip-rule="evenodd" d="M19.83 21.5897C22.8537 21.5897 25.3049 19.1385 25.3049 16.1148C25.3049 13.0911 22.8537 10.6399 19.83 10.6399C16.8063 10.6399 14.3551 13.0911 14.3551 16.1148C14.3551 19.1385 16.8063 21.5897 19.83 21.5897ZM19.83 24.5854C24.5081 24.5854 28.3006 20.793 28.3006 16.1148C28.3006 11.4366 24.5081 7.64419 19.83 7.64419C15.1518 7.64419 11.3594 11.4366 11.3594 16.1148C11.3594 20.793 15.1518 24.5854 19.83 24.5854Z" fill="white"/>
		<path d="M18.2805 0H21.3795V8.16069H18.2805V0Z" fill="white"/>
	</g>
</symbol>
</svg>
